<svg width="24" height="24" viewBox="0 0 24 24" fill="none" xmlns="http://www.w3.org/2000/svg">
<path d="M12 21C12.7061 21 13.3852 20.7845 13.9312 20.3844C15.2631 19.4341 17.2285 17.3085 17.3481 14.8013C17.4203 13.2153 16.6343 11.7505 15.2803 10.8909C13.8833 10.0022 12.0002 10.1502 12.0002 10.1502C12.0002 10.1502 10.1171 10.0022 8.72009 10.8909C7.36609 11.7505 6.58008 13.2153 6.65228 14.8013C6.77188 17.3085 8.73729 19.4341 10.0692 20.3844C10.6152 20.7845 11.2942 21 12.0002 21Z" fill="#6366F1"/>
<path d="M12.6074 7.8717C13.0125 7.49111 13.0332 6.85833 12.6526 6.45324C12.272 6.04815 11.6393 6.02746 11.2342 6.40805L11.2336 6.40859C10.8285 6.78917 10.8078 7.42196 11.1884 7.82705C11.569 8.23214 12.2018 8.25282 12.6068 7.87223L12.6074 7.8717Z" fill="#6366F1"/>
<path d="M9.34961 8.84338C9.80145 8.40646 9.82725 7.70299 9.39033 7.24988C8.95341 6.79676 8.24995 6.77096 7.79683 7.20788L7.79629 7.20841C7.34317 7.64533 7.31737 8.34879 7.75429 8.80191C8.19121 9.25503 8.89467 9.28083 9.34779 8.84391L9.34961 8.84338Z" fill="#6366F1"/>
<g opacity="0.5">
<path d="M17.411 8.80563C17.8592 8.35623 17.882 7.65182 17.4326 7.2036C16.9832 6.75538 16.2788 6.77818 15.8306 7.22758L15.8294 7.22875C15.3812 7.67815 15.3584 8.38256 15.8078 8.83078C16.2572 9.279 16.9616 9.25623 17.4098 8.80683L17.411 8.80563Z" fill="#6366F1"/>
</g>
</svg>